<?xml version="1.0" standalone="no"?>
<!DOCTYPE svg PUBLIC "-//W3C//DTD SVG 20010904//EN"
 "http://www.w3.org/TR/2001/REC-SVG-20010904/DTD/svg10.dtd">
<svg version="1.0" xmlns="http://www.w3.org/2000/svg"
 width="2000.000000pt" height="2000.000000pt" viewBox="0 0 2000.000000 2000.000000"
 preserveAspectRatio="xMidYMid meet">
<metadata>
Created by potrace 1.14, written by Peter Selinger 2001-2017
</metadata>
<g transform="translate(0.000000,2000.000000) scale(0.100000,-0.100000)"
fill="#000000" stroke="none">
<path d="M0 10000 l0 -10000 10000 0 10000 0 0 10000 0 10000 -10000 0 -10000
0 0 -10000z m10192 4880 c631 -43 1167 -218 1678 -548 125 -81 260 -184 254
-193 -3 -5 3 -9 13 -9 10 0 25 -11 34 -23 16 -22 16 -22 -11 -23 -31 -2 -79
-32 -80 -51 0 -7 -6 -13 -12 -13 -7 0 -27 -13 -43 -28 -17 -16 -36 -27 -43
-24 -6 2 -12 -2 -12 -8 0 -14 -25 -40 -38 -40 -6 0 -32 -17 -59 -38 -26 -20
-70 -48 -96 -62 -27 -13 -53 -32 -58 -42 -5 -10 -16 -18 -24 -18 -8 0 -15 -4
-15 -10 0 -5 -18 -19 -40 -30 -22 -11 -40 -25 -40 -30 0 -6 -8 -10 -17 -10
-21 -1 -63 -33 -63 -49 0 -6 -6 -11 -12 -11 -7 0 -27 -13 -43 -28 -17 -16 -36
-27 -43 -24 -6 2 -12 -2 -12 -8 0 -14 -25 -40 -38 -40 -6 0 -32 -17 -59 -38
-26 -20 -70 -48 -96 -62 -27 -13 -53 -32 -58 -42 -5 -10 -16 -18 -24 -18 -8 0
-15 -4 -15 -10 0 -5 -18 -19 -40 -30 -22 -11 -40 -25 -40 -30 0 -6 -8 -10 -17
-10 -21 -1 -63 -33 -63 -49 0 -6 -6 -11 -12 -11 -7 0 -27 -13 -43 -28 -17 -16
-36 -27 -43 -24 -6 2 -12 -2 -12 -8 0 -20 -26 -38 -61 -42 -20 -3 -35 -10 -35
-19 -1 -8 -2 -18 -3 -24 -1 -5 -14 15 -29 45 -77 158 -251 328 -412 404 -111
52 -188 70 -310 70 -316 0 -597 -204 -755 -547 -60 -131 -105 -325 -105 -453
l0 -64 159 0 158 0 6 88 c17 235 124 454 278 567 83 61 157 87 249 89 94 1
166 -21 248 -75 68 -45 176 -165 167 -187 -3 -8 0 -10 7 -6 8 5 9 2 5 -9 -3
-9 -2 -16 4 -14 15 3 40 -61 27 -69 -5 -4 -15 0 -20 7 -8 12 -9 11 -5 -1 2 -8
13 -14 25 -13 11 1 22 -4 25 -11 4 -9 -2 -12 -19 -10 -13 1 -22 -2 -19 -7 3
-4 -3 -14 -15 -21 -11 -7 -20 -18 -20 -25 0 -7 -6 -13 -12 -13 -7 0 -27 -13
-43 -28 -17 -16 -36 -27 -43 -24 -6 2 -12 -2 -12 -8 0 -14 -25 -40 -38 -40 -6
0 -32 -17 -59 -38 -26 -20 -70 -48 -96 -62 -27 -13 -53 -32 -58 -42 -5 -10
-16 -18 -24 -18 -8 0 -15 -4 -15 -10 0 -5 -18 -19 -40 -30 -22 -11 -40 -25
-40 -30 0 -6 -8 -10 -17 -10 -19 -1 -63 -33 -63 -47 0 -4 -21 -18 -48 -30
l-47 -23 50 -1 c39 -2 30 -4 -35 -10 -47 -4 -340 -7 -652 -8 -507 -1 -568 -3
-568 -17 0 -8 -41 -214 -91 -457 -50 -243 -93 -453 -95 -467 -7 -40 -13 -52
-24 -45 -5 3 -10 2 -10 -4 0 -5 5 -11 11 -13 6 -2 -12 -16 -40 -31 -28 -16
-51 -32 -51 -38 0 -5 -8 -9 -17 -9 -21 -1 -63 -33 -63 -49 0 -6 -6 -11 -12
-11 -7 0 -27 -13 -43 -28 -17 -16 -36 -27 -43 -24 -6 2 -12 -2 -12 -8 0 -14
-25 -40 -38 -40 -6 0 -32 -17 -59 -38 -26 -20 -70 -48 -96 -62 -27 -13 -53
-32 -58 -42 -5 -10 -19 -18 -30 -18 -13 0 -18 -4 -13 -12 5 -8 2 -9 -10 -5
-14 6 -15 3 -5 -14 10 -20 10 -20 -15 -4 -14 9 -31 15 -38 12 -9 -4 -8 -6 3
-6 23 -1 44 -28 27 -34 -9 -3 -6 -12 11 -31 14 -14 20 -26 15 -25 -16 1 -119
126 -119 145 -1 10 -6 18 -13 17 -12 -3 -103 127 -160 229 l-32 56 37 14 c21
7 80 13 135 13 93 0 96 1 80 19 -27 29 -93 63 -151 76 -202 47 -404 -108 -405
-309 0 -65 18 -141 34 -141 4 0 11 15 14 34 9 47 61 147 90 175 l25 24 10 -24
c6 -13 29 -67 52 -119 23 -52 42 -103 42 -112 1 -10 6 -18 11 -18 5 0 7 -3 3
-6 -3 -4 1 -13 9 -21 8 -9 13 -22 10 -30 -3 -8 -1 -11 4 -8 9 6 14 -8 11 -27
0 -5 3 -8 8 -8 5 0 12 -13 16 -30 4 -16 11 -32 16 -35 5 -4 9 -11 9 -17 0 -5
-9 0 -20 13 -10 13 -19 19 -20 12 0 -6 5 -15 10 -18 6 -3 10 -11 10 -16 0 -6
-6 -7 -12 -3 -8 5 -7 0 2 -11 14 -17 13 -18 -4 -12 -13 5 -31 -2 -60 -26 -22
-18 -63 -43 -89 -57 -27 -13 -53 -32 -58 -42 -5 -10 -16 -18 -24 -18 -8 0 -15
-4 -15 -10 0 -5 -18 -19 -40 -30 -22 -11 -40 -25 -40 -30 0 -6 -8 -10 -17 -10
-21 -1 -63 -33 -63 -49 0 -6 -6 -11 -12 -11 -7 0 -27 -13 -43 -28 -17 -16 -36
-27 -43 -24 -6 2 -12 -2 -12 -8 0 -13 -25 -40 -37 -40 -9 0 -90 -56 -108 -75
-5 -6 -9 -8 -8 -6 2 2 -3 11 -10 19 -10 13 -9 15 3 8 8 -4 6 0 -4 8 -11 9 -16
16 -12 16 5 0 4 6 -2 13 -17 20 -90 274 -121 422 -60 282 -66 350 -66 720 1
303 3 356 23 485 120 771 441 1410 977 1945 614 614 1408 965 2280 1008 139 7
201 6 347 -3z m2029 -817 c13 -16 12 -17 -3 -4 -10 7 -18 15 -18 17 0 8 8 3
21 -13z m-21 -17 c0 -2 -8 -10 -17 -17 -16 -13 -17 -12 -4 4 13 16 21 21 21
13z m-325 -216 c-3 -5 -13 -10 -21 -10 -8 0 -14 5 -14 10 0 6 9 10 21 10 11 0
17 -4 14 -10z m-560 -400 c-3 -5 -13 -10 -21 -10 -8 0 -14 5 -14 10 0 6 9 10
21 10 11 0 17 -4 14 -10z m-532 -361 c-4 -15 -9 -17 -17 -9 -8 8 -7 13 4 20 8
5 16 10 17 10 0 0 -1 -9 -4 -21z m-287 -259 c0 -12 -4 -16 -9 -11 -5 5 -6 14
-3 20 10 15 12 14 12 -9z m-301 -180 c-3 -5 -13 -10 -21 -10 -8 0 -14 5 -14
10 0 6 9 10 21 10 11 0 17 -4 14 -10z m-1855 -1294 c0 -3 -4 -8 -10 -11 -5 -3
-10 -1 -10 4 0 6 5 11 10 11 6 0 10 -2 10 -4z m-385 -306 c-3 -5 -13 -10 -21
-10 -8 0 -14 5 -14 10 0 6 9 10 21 10 11 0 17 -4 14 -10z m-201 -156 c3 -8 2
-12 -4 -9 -6 3 -10 10 -10 16 0 14 7 11 14 -7z m-260 -162 c3 -5 -1 -9 -9 -9
-8 0 -12 4 -9 9 3 4 7 8 9 8 2 0 6 -4 9 -8z m-8 -43 c19 -22 19 -22 -3 -10
-13 6 -23 16 -23 21 0 15 5 12 26 -11z m31 6 c0 -8 -4 -12 -9 -9 -5 3 -6 10
-3 15 9 13 12 11 12 -6z m-122 -45 c-3 -5 -13 -10 -21 -10 -8 0 -14 5 -14 10
0 6 9 10 21 10 11 0 17 -4 14 -10z m-560 -400 c-3 -5 -13 -10 -21 -10 -8 0
-14 5 -14 10 0 6 9 10 21 10 11 0 17 -4 14 -10z m1625 -2773 c0 -4 6 -5 13 -1
6 3 -6 -9 -28 -27 -22 -19 -43 -33 -48 -31 -5 2 -6 -5 -3 -15 4 -9 4 -14 0
-11 -3 4 -13 0 -21 -8 -8 -8 -19 -11 -25 -8 -7 4 -8 2 -4 -4 4 -7 1 -12 -8
-12 -19 0 -21 38 -4 75 13 29 23 31 38 8 9 -16 10 -15 5 5 -5 17 -1 24 17 31
28 11 68 10 68 -2z m3150 -319 l1 -313 19 36 c29 55 108 129 166 156 77 35
195 50 272 33 34 -7 59 -16 57 -20 -3 -5 4 -6 15 -3 14 4 20 0 20 -12 0 -11
-5 -15 -16 -11 -10 4 -13 2 -8 -6 5 -7 2 -9 -9 -5 -11 4 -15 1 -12 -12 3 -18
1 -18 -43 -4 -51 16 -158 12 -224 -7 -110 -32 -208 -149 -234 -282 -1 -5 -3
-9 -4 -10 -1 -2 -3 -21 -4 -42 -1 -26 -6 -40 -16 -42 -8 -1 -23 -5 -32 -9 -17
-7 -18 18 -18 429 l0 436 35 0 35 0 0 -312z m-3107 247 c-3 -9 -8 -14 -10 -11
-3 3 -2 9 2 15 9 16 15 13 8 -4z m-2523 -21 c69 -17 223 -84 234 -102 5 -8
-62 -163 -77 -179 -2 -2 -37 12 -78 32 -110 52 -227 79 -315 72 -80 -6 -122
-23 -154 -64 -31 -40 -24 -112 16 -154 40 -42 77 -60 244 -114 226 -74 311
-128 361 -232 34 -71 33 -197 -2 -273 -49 -102 -141 -171 -279 -206 -48 -12
-95 -15 -190 -12 -107 4 -138 9 -213 35 -89 31 -172 76 -233 126 l-34 28 45
90 45 89 63 -46 c128 -95 259 -139 387 -132 104 6 164 35 192 93 30 61 19 108
-37 161 -39 37 -61 48 -233 103 -274 89 -341 139 -378 280 -50 199 78 372 311
417 85 17 234 11 325 -12z m5015 -9 c57 -16 150 -57 168 -75 5 -4 2 -21 -7
-38 l-16 -31 -57 29 c-193 95 -469 72 -559 -45 -39 -51 -46 -143 -16 -202 43
-83 112 -124 318 -188 226 -71 304 -118 353 -216 26 -52 31 -74 31 -134 0
-101 -16 -142 -53 -136 -5 1 -6 -3 -2 -9 3 -5 1 -10 -4 -10 -6 0 -11 -8 -11
-17 0 -15 2 -16 10 -3 5 8 10 10 10 5 0 -14 -21 -35 -34 -35 -6 0 -4 5 4 11
13 9 13 10 0 6 -8 -2 -16 -13 -18 -25 -2 -12 -7 -20 -12 -17 -5 3 -7 12 -3 20
3 8 0 15 -5 15 -6 0 -9 -11 -6 -24 2 -14 0 -27 -5 -30 -5 -3 -8 1 -7 9 0 7 -3
14 -9 14 -5 0 -10 -9 -10 -22 0 -12 -6 -22 -12 -23 -7 -1 -16 -3 -20 -4 -5 -1
-11 -2 -15 -1 -5 0 -8 -4 -8 -9 0 -7 -7 -7 -21 0 -11 7 -23 9 -27 6 -3 -3 0
-6 6 -6 16 0 15 -16 0 -18 -7 -1 -31 -5 -53 -9 -22 -3 -85 -6 -140 -6 -82 0
-114 5 -180 27 -81 28 -167 75 -218 120 -30 26 -29 30 10 85 1 2 20 -12 42
-32 48 -43 134 -88 217 -113 68 -21 250 -24 298 -5 24 10 31 9 42 -6 11 -14
13 -14 9 -2 -7 19 69 74 87 63 6 -4 8 -3 4 4 -3 5 -2 12 2 14 19 7 62 114 62
152 -2 144 -89 216 -355 295 -284 85 -375 169 -375 345 0 187 172 303 430 291
52 -2 122 -11 155 -20z m-2595 -5 c0 -5 -5 -10 -11 -10 -5 0 -7 5 -4 10 3 6 8
10 11 10 2 0 4 -4 4 -10z m-20 -45 c0 -5 -5 -3 -10 5 -5 8 -10 20 -10 25 0 6
5 3 10 -5 5 -8 10 -19 10 -25z m-1708 -315 l3 -90 42 54 c31 41 58 62 109 87
66 33 73 34 189 34 107 0 125 -3 169 -24 63 -32 113 -82 141 -143 l23 -49 30
54 c59 104 152 157 293 165 115 6 198 -15 257 -66 23 -20 23 -20 3 -27 -26 -8
-27 -21 -3 -34 16 -10 15 -10 -3 -11 -11 0 -32 -12 -45 -28 -32 -34 -74 -54
-88 -40 -6 6 -12 6 -17 -1 -3 -6 -3 -11 2 -10 4 1 11 0 16 -1 4 -1 12 -3 19
-4 6 0 12 -7 14 -14 1 -7 0 -8 -3 -2 -2 5 -9 8 -14 5 -5 -4 -28 5 -51 19 -99
58 -225 40 -307 -42 -65 -65 -81 -116 -81 -257 l0 -112 -34 -37 c-19 -20 -37
-36 -40 -36 -3 0 -28 -23 -56 -51 -27 -28 -50 -45 -51 -37 -2 39 -19 -55 -17
-99 1 -29 -1 -56 -5 -60 -4 -3 -7 131 -7 298 0 272 -2 308 -19 344 -26 59 -80
101 -145 116 -48 10 -64 10 -123 -6 -55 -15 -76 -27 -114 -65 -76 -76 -82
-102 -87 -417 l-4 -273 -94 0 -94 0 0 475 0 475 95 0 94 0 3 -90z m5513 -9 c3
-5 0 -13 -6 -17 -7 -4 -9 -3 -5 4 3 6 -2 13 -11 15 -16 4 -16 5 -1 6 9 0 19
-3 23 -8z m-4209 -23 l19 -23 -21 18 c-13 11 -28 15 -39 11 -13 -5 -16 -4 -11
4 11 18 31 14 52 -10z m-190 -1483 c62 -48 70 -145 16 -203 -100 -107 -291 -9
-252 128 29 100 152 139 236 75z m387 -66 l77 -102 0 102 c0 100 0 102 23 99
21 -3 22 -6 25 -140 l3 -138 -28 0 c-23 1 -39 16 -98 95 l-70 94 -3 -95 c-3
-92 -3 -94 -27 -94 l-25 0 0 140 c0 139 0 140 23 140 17 0 42 -26 100 -101z
m405 -21 l3 -118 59 0 c53 0 60 -2 60 -20 0 -18 -7 -20 -85 -20 l-85 0 0 141
c0 140 0 140 23 137 21 -3 22 -7 25 -120z m372 -18 l0 -140 -25 0 -25 0 0 140
0 140 25 0 25 0 0 -140z m351 43 l74 -96 3 96 c3 96 3 97 27 97 l25 0 0 -140
0 -140 -25 0 c-19 0 -40 21 -97 96 l-73 95 -3 -95 c-3 -95 -3 -96 -27 -96
l-25 0 0 133 c0 74 3 137 7 140 19 20 47 -1 114 -90z m559 72 c0 -24 -2 -25
-75 -25 l-75 0 0 -35 0 -35 70 0 c63 0 70 -2 70 -20 0 -18 -7 -20 -70 -20
l-70 0 0 -40 0 -40 80 0 c73 0 80 -2 80 -20 0 -19 -7 -20 -105 -20 l-105 0 0
140 0 140 100 0 100 0 0 -25z m659 14 c32 -11 37 -23 22 -48 -7 -10 -13 -11
-30 -1 -12 6 -39 10 -59 8 -29 -2 -37 -7 -37 -23 0 -11 11 -24 25 -31 14 -6
43 -20 65 -30 109 -52 34 -174 -88 -143 -61 15 -81 32 -68 58 11 20 11 20 44
1 38 -24 80 -26 101 -5 24 24 9 42 -57 67 -74 28 -97 60 -75 105 23 49 88 66
157 42z m446 -14 c0 -16 -8 -21 -42 -23 l-43 -3 0 -115 0 -114 -25 0 -25 0 0
114 0 115 -42 3 c-36 2 -44 7 -46 26 -3 23 -3 23 110 20 105 -3 113 -4 113
-23z m368 11 c54 -23 80 -59 84 -118 5 -63 -18 -108 -69 -134 -69 -36 -160
-13 -199 49 -30 48 -22 127 16 167 45 47 110 61 168 36z m477 -4 c57 -28 66
-106 18 -154 -22 -22 -23 -20 20 -85 14 -22 13 -23 -12 -23 -19 0 -32 10 -51
40 -23 36 -29 40 -65 40 -40 0 -40 0 -40 -40 0 -36 -2 -40 -25 -40 l-25 0 0
133 c0 74 3 137 7 140 14 15 138 7 173 -11z m470 -7 c0 -24 -2 -25 -75 -25
l-75 0 0 -35 0 -35 70 0 c63 0 70 -2 70 -20 0 -18 -7 -20 -70 -20 l-70 0 0
-40 0 -40 80 0 c73 0 80 -2 80 -20 0 -19 -7 -20 -105 -20 l-105 0 0 133 c0 74
3 137 7 140 3 4 48 7 100 7 93 0 93 0 93 -25z"/>
<path d="M12144 14111 c5 -8 -2 -10 -21 -9 -15 2 -29 -1 -30 -7 -3 -12 47 -9
60 4 5 5 4 12 -4 16 -8 5 -10 4 -5 -4z"/>
<path d="M6766 10347 c3 -10 9 -15 12 -12 3 3 0 11 -7 18 -10 9 -11 8 -5 -6z"/>
<path d="M6774 10309 c-3 -6 -1 -16 5 -22 9 -9 10 -7 5 7 -6 15 -4 17 6 11 9
-5 11 -4 6 3 -9 15 -13 15 -22 1z"/>
<path d="M8416 7452 c-3 -5 1 -9 9 -9 8 0 12 4 9 9 -3 4 -7 8 -9 8 -2 0 -6 -4
-9 -8z"/>
<path d="M10992 6194 c-11 -12 -10 -13 5 -11 10 1 27 8 38 15 18 10 18 11 3
12 -10 0 -18 -6 -18 -12 0 -10 -2 -10 -8 -2 -5 9 -11 8 -20 -2z"/>
<path d="M7900 7000 c-12 -7 -10 -9 7 -7 12 0 19 5 17 9 -6 10 -6 10 -24 -2z"/>
<path d="M7634 5445 c-55 -38 -51 -130 6 -160 46 -24 88 -19 121 14 38 39 39
87 3 130 -21 26 -33 31 -68 31 -23 0 -51 -7 -62 -15z"/>
<path d="M11206 5435 c-21 -19 -26 -33 -26 -69 0 -37 5 -48 31 -70 19 -17 43
-26 64 -26 21 0 45 9 64 26 26 22 31 33 31 70 0 62 -32 94 -93 94 -33 0 -51
-6 -71 -25z"/>
<path d="M11680 5410 l0 -50 53 0 c59 0 77 12 77 50 0 38 -18 50 -77 50 l-53
0 0 -50z"/>
</g>
</svg>
